<svg width="1024" height="1024" viewBox="0 0 1024 1024" xmlns="http://www.w3.org/2000/svg" preserveAspectRatio="xMidYMid meet"><svg x="60" y="223" width="907" height="578" xmlns="http://www.w3.org/2000/svg" preserveAspectRatio="none"><svg version="1.1" xmlns="http://www.w3.org/2000/svg" style="display: block;" width="907" height="578" viewBox="-3.89 -6.47 2056.81 1309.46" preserveAspectRatio="none"><g id="svg-group-3fa6653e-75bc-445c-a228-b17748965de0">
<path transform="translate(0,0)" fill="rgba(246, 113, 37, 1)" d="M 1473.95 227.38 C 1488.86 225.506 1500.91 227.327 1515.2 228.277 C 1556.27 231.008 1589.41 239.055 1627.08 255.001 C 1645.88 262.262 1660.67 272.661 1677.27 283.953 C 1748.79 332.593 1804.13 419.081 1818.43 504.259 C 1827.09 555.824 1824.23 612.61 1824.8 664.73 C 1825.61 738.459 1827.11 805.925 1798.66 875.57 C 1773.43 936.97 1729.71 988.988 1673.57 1024.4 C 1658.86 1033.86 1653.08 1038.15 1636.87 1044.89 C 1608.33 1056.76 1575 1067.34 1544.13 1070.46 C 1522.79 1072.61 1494.78 1071.88 1472.75 1071.84 L 1361.68 1071.68 L 1213.23 1071.7 C 1197.01 1071.72 1181.11 1072 1164.9 1072.99 C 1163.34 1073.09 1158.13 1071 1156.43 1070.3 C 1163.5 1061.4 1177.3 1044.1 1185.49 1037.71 C 1210.22 1036.65 1238.23 1037.19 1263.24 1037.15 L 1404.42 1037.27 C 1502.72 1037.52 1587.38 1044.91 1669.46 979.57 C 1681.26 970.176 1692.81 962.048 1703.55 950.953 C 1765.86 888.111 1788.61 806.91 1787.59 720.275 C 1787.15 683.49 1787.92 647.628 1785.19 610.491 C 1783.38 583.16 1787.66 550.553 1783.96 523.705 C 1775.09 459.294 1744.15 396.718 1698.58 350.887 C 1643.08 295.404 1567.77 264.293 1489.29 264.423 C 1439.73 264.46 1382.26 278.061 1339.83 303.697 C 1302.27 326.396 1263.92 365.618 1232.67 396.723 L 1150.41 478.835 L 914.277 714.84 L 819.23 809.72 C 774.795 854.182 714.592 923.446 656.085 946.244 C 539.243 991.774 400.752 948.96 354.976 825.111 C 348.426 806.964 344.171 788.069 342.311 768.865 C 339.696 742.639 340.849 696.644 341.051 669.093 C 341.441 616.201 338.225 560.705 346.028 508.67 C 347.942 495.907 357.869 466.825 363.846 454.675 C 383.51 414.703 424.507 373.653 466.642 357.892 C 479.24 353.18 509.765 345.547 522.817 344.95 C 557.126 344.509 601.579 342.635 634.915 344.259 C 657.873 345.377 751.246 340.81 765.098 347.346 L 765.911 350.041 C 764.404 360.462 751.293 373.28 744.199 380.875 C 725.609 381.818 704.864 381.363 686.132 381.331 L 589.428 381.022 C 519.594 380.782 476.105 378.549 424.309 433.453 C 368.068 493.069 379.602 568.502 378.177 643.758 C 377.372 686.305 379.312 728.064 381.986 770.483 C 383.072 786.387 387.373 802.623 393.157 817.455 C 403.519 844.847 421.042 866.165 443.06 885.296 C 499.548 935.173 585.842 939.779 652.131 907.729 C 683.713 892.459 717.414 856.184 742.243 831.166 L 796.5 776.735 L 1080.85 492.417 C 1126.22 446.067 1172.36 400.472 1219.23 355.651 C 1226.18 349.095 1232.31 341.394 1239.14 334.915 C 1263.77 311.579 1293.53 287.697 1322.45 269.685 C 1352.8 250.777 1396.68 237.793 1431.74 231.564 C 1442.28 229.692 1462.33 228.412 1473.95 227.38 z"/>
<path transform="translate(0,0)" fill="rgba(246, 113, 37, 1)" d="M 519.719 233.377 C 531.615 231.663 545.095 232.691 557.165 232.694 L 630.46 232.797 L 875.154 232.933 C 869.942 247.691 861.974 256.818 850.112 266.756 C 833.699 267.376 817.324 269.193 800.901 269.625 C 742.61 271.159 683.917 269.686 625.587 269.674 L 556.486 269.686 C 538.865 269.706 520.93 269.212 503.426 271.486 C 475.089 275.167 445.272 283.758 419.994 297.202 C 362.804 327.617 304.101 389.262 284.999 451.949 C 277.745 475.755 271.969 500.097 269.291 524.86 C 265.108 563.538 266.768 602.994 266.77 641.865 C 266.773 698.26 263.818 757.101 274.005 812.754 C 278.992 838.677 287.82 863.71 300.2 887.025 C 333.433 948.888 391.526 1001.99 459.432 1022.3 C 513.181 1038.38 570.261 1043.54 625.157 1029.68 C 635.793 1027 646.087 1023 656.433 1019.38 C 667.886 1015.38 680.171 1011.82 691.022 1006.39 C 719.213 992.262 746.326 970.14 769.833 949.108 C 791.501 929.723 809.789 907.75 829.897 886.938 C 860.413 855.896 891.149 825.072 922.103 794.467 L 1210.38 509.087 L 1268.99 450.637 C 1298.82 420.839 1327.45 390.586 1365.07 370.385 C 1406.96 347.895 1442.44 340.56 1489.37 340.621 C 1514.43 340.653 1537.14 342.892 1561.26 350.245 C 1616.17 366.989 1659.36 406.287 1686.06 456.551 C 1698.08 479.19 1704.78 504.671 1708.17 529.961 C 1710.76 549.289 1710.44 568.543 1710.48 587.993 L 1710.61 654.747 L 1710.71 725.84 C 1710.72 741.846 1711.13 758.065 1709.87 774.025 C 1708.79 788.004 1706.12 801.814 1701.91 815.186 C 1689.23 856.426 1665.04 890.727 1631.06 917.171 C 1622.73 923.652 1614.4 929.993 1605.05 934.938 C 1601.07 937.345 1596.99 939.464 1592.79 941.453 C 1574.46 950.142 1552.86 956.666 1532.7 959.075 C 1517.98 960.835 1502.65 960.384 1487.82 960.371 L 1426.92 960.218 L 1342.01 959.982 C 1325.61 959.927 1308.98 960.351 1292.61 959.43 C 1286.07 959.062 1279.31 958.414 1273.13 956.198 C 1272.14 954.532 1271.91 954.011 1272.11 952.049 C 1273.02 942.872 1286.11 928.897 1292.94 923.036 C 1313.02 922.115 1333.27 922.843 1353.38 922.894 L 1460.5 923.097 C 1482.36 923.138 1504.89 924.46 1526.63 922.17 C 1570.54 917.546 1608.07 893.547 1635.51 859.488 C 1650.56 840.814 1663.39 815.79 1668.71 792.374 C 1674.14 768.469 1673.33 743.848 1673.35 719.5 L 1673.37 649.526 C 1673.36 613.04 1675.57 575.124 1671.49 538.88 C 1666.16 491.491 1643.54 445.282 1605.77 415.331 C 1568.96 386.143 1529.55 377.716 1483.63 377.792 C 1450.97 377.847 1420.82 382.581 1391.5 397.817 C 1356.71 415.891 1330.28 445.363 1302.97 472.727 L 1245.7 529.976 L 973.534 799.192 L 867.406 905.264 C 819.843 952.814 774.445 1000.39 716.245 1035.24 C 684.326 1054.36 630.035 1068.48 593.374 1072.63 C 508.221 1082.25 416.931 1058.4 349.589 1004.61 C 280.771 949.642 241.325 871.087 231.669 784.182 C 229.353 763.332 229.605 742.569 229.547 721.631 L 229.398 649.78 C 229.224 532.212 222.207 437.48 304.397 342.175 C 365.052 271.842 429.142 243.217 519.719 233.377 z"/>
<path transform="translate(0,0)" fill="rgba(246, 113, 37, 1)" d="M 1469.3 115.421 C 1728.33 104.801 1941.37 310.505 1933.27 571.001 C 1932.7 599.482 1934.07 628.362 1933.29 656.795 C 1931.75 712.805 1937.17 772.108 1928.75 827.402 C 1899.99 1016.14 1740.41 1167.11 1550.27 1185.05 C 1532.78 1186.7 1514.92 1186.19 1497.34 1186.19 L 1416.1 1186.15 L 1151.84 1186.14 C 1127.64 1186.14 1103.5 1186.03 1079.3 1186.5 C 1069.78 1186.69 1054.12 1190.51 1045.91 1187.3 C 1043.4 1184.81 1042.34 1182.82 1044.52 1179.42 C 1050.5 1170.08 1057.59 1157.3 1065.74 1149.84 L 1066.65 1149.02 C 1099.64 1147.32 1146.36 1148.73 1180.25 1148.76 L 1395.57 1148.86 C 1469.39 1148.9 1548.83 1153.88 1619.59 1132.3 C 1668.66 1116.85 1714.23 1091.94 1753.73 1058.99 C 1765.96 1048.61 1776.24 1037.45 1787.65 1026.48 C 1809.95 1005.02 1826.73 985.659 1841.55 958.127 C 1860.81 922.348 1876.83 887.573 1885.65 847.629 C 1889.84 828.669 1894.16 805.41 1895.39 786.218 C 1896.6 767.293 1896.22 745.632 1896.22 726.449 L 1896.16 630.421 L 1896.15 561.333 C 1896.14 546.508 1896.47 529.534 1895.18 514.921 C 1893.08 489.605 1888.26 464.59 1880.79 440.308 C 1849.1 337.553 1783.94 260.882 1692.48 204.532 C 1684.38 199.541 1663.01 190.544 1652.57 185.026 C 1642.25 179.809 1609.03 169.822 1595.88 166.462 C 1511.24 144.826 1422.94 148.25 1340.96 179.128 C 1318.75 189.569 1292.73 200.333 1271.9 213.215 C 1232.75 237.417 1197.17 276.12 1165.15 308.279 L 1073.48 400.145 L 765.461 708.402 C 751.245 722.63 734.107 738.779 720.8 753.242 C 693.931 783.069 666.424 814.144 631.78 835.153 C 620.746 841.845 606.142 845.541 593.674 848.351 C 531.273 862.416 461.591 825.363 453.917 758.369 C 452.071 742.256 451.902 727.374 452.063 710.9 C 452.592 656.682 451.554 602.31 452.631 548.103 C 453.554 505.289 491.046 450.26 538.957 459.374 C 546.153 460.743 549.968 467.08 552.983 472.955 C 552.326 475.331 550.387 482.82 549.005 484.424 C 536.826 498.56 515.099 496.865 501.712 513.602 C 496.831 519.704 493.535 525.284 492.379 532.806 C 488.364 564.387 488.421 597.5 489.268 629.656 C 490.43 673.799 484.952 727.299 495.68 769.867 C 503.515 800.955 545.926 817.26 575.92 814.892 C 615.645 811.756 641.324 779.663 667.624 753.311 C 710.147 708.907 752.295 665.457 795.626 622.037 L 939.067 478.436 L 1094.85 322.567 L 1158.56 258.759 C 1174.92 242.39 1191.36 224.932 1209.52 210.607 C 1226.15 197.32 1244.83 186.753 1262.47 174.967 C 1277.93 164.638 1292.31 160.38 1308.49 152.809 C 1360.06 128.681 1412.36 118.621 1469.3 115.421 z"/>
<path transform="translate(0,0)" fill="rgba(246, 113, 37, 1)" d="M 642.039 118.499 C 702.346 118.517 762.78 117.327 822.942 120.984 C 840.544 122.053 859.168 118.65 876.194 119.175 C 903.278 120.009 930.096 121.996 957.308 121.029 C 962.702 120.877 982.83 120.47 985.685 122.966 C 987.902 132.198 968.305 150.548 960.589 155.124 C 943.251 156.097 925.194 155.611 907.755 155.584 L 825.506 155.572 L 602.264 155.674 C 565.172 155.322 505.404 157.463 469.762 163.79 C 290.254 195.652 153.099 368.465 154.536 549.597 C 154.633 561.904 152.281 575.462 152.602 587.952 C 160.028 704.9 139.809 819.779 194.083 929.238 C 250.46 1036.6 342.459 1112.85 460.759 1138.78 C 620.973 1176.01 771.983 1120.68 875.509 994.571 C 886.483 981.203 915.791 950.53 929.083 937.455 L 1256.7 609.486 L 1331.46 534.387 C 1349.8 515.922 1369.28 491.585 1394.2 483.578 C 1399.21 488.043 1409.64 500.603 1408.96 507.284 C 1407.68 519.824 1385.05 537.418 1376.17 545.904 C 1365.01 556.685 1354.01 567.619 1343.15 578.701 C 1283.95 638.641 1224.43 698.273 1164.61 757.597 L 879.888 1047.95 C 809.107 1118.93 739.047 1160.95 639.631 1180.09 C 479.757 1210.87 311.832 1154.01 210.501 1023.5 C 158.818 957.979 127.307 878.84 119.809 795.725 C 117.253 769.646 118.042 737.103 118.021 710.392 L 117.972 582.16 C 117.967 559.566 117.509 536.719 119.156 514.117 C 133.6 315.987 291.651 146.71 489.482 122.609 C 537.654 116.741 593.034 118.497 642.039 118.499 z"/>
<path transform="translate(0,0)" fill="rgba(246, 113, 37, 1)" d="M 1512.58 455.281 C 1531.89 456.018 1548.81 463.177 1562.7 476.568 C 1584.6 497.687 1595.79 527.005 1596.22 557.151 C 1596.81 599.497 1596.04 641.92 1596.16 684.277 C 1596.22 708.895 1598.96 751.68 1594.08 774.756 C 1590.48 791.739 1581.32 808.593 1569.18 820.919 C 1529.3 861.382 1470.24 845.847 1419.75 845.944 C 1415.21 846.041 1408.52 846.981 1404.24 845.872 C 1401.61 845.189 1401.13 844.135 1400.03 841.92 C 1400.01 837.594 1401.26 833.335 1403.1 829.437 C 1406.49 822.242 1412.16 816.239 1419.7 813.434 C 1427.96 810.362 1437.85 811.333 1446.51 811.45 C 1468.29 811.743 1506.26 815.21 1525.75 808.06 C 1538.31 803.453 1548.61 792.226 1553.95 780.14 C 1556.63 774.084 1557.84 767.697 1558.34 761.125 C 1560.89 727.415 1558.99 686.381 1558.98 651.642 L 1558.94 591.89 C 1558.93 579.444 1559.4 566.659 1558.31 554.264 C 1557.44 544.39 1555.96 534.455 1551.35 525.566 C 1546.34 515.916 1538.1 506.946 1529.06 500.925 C 1517.99 493.545 1500.26 489.485 1495.32 475.614 C 1494.15 472.322 1493.93 468.524 1495.67 465.388 C 1498.78 459.8 1506.7 456.772 1512.58 455.281 z"/>
<path transform="translate(0,0)" fill="rgba(246, 113, 37, 1)" d="M 589.307 711.267 C 547.148 697.563 583.122 674.096 597.914 656.922 C 620.762 630.393 645.833 606.501 670.521 581.737 L 864.674 390.329 L 1019.4 235.598 C 1072.53 182.519 1125.96 126.423 1190.13 86.5403 C 1267.91 38.2094 1351.27 13.701 1441.77 3.29759 C 1526.72 -6.46749 1649.06 16.9945 1726.37 52.7948 C 1767.22 71.7096 1810.62 100.469 1845.78 128.603 C 1878.9 155.11 1905.68 185.62 1931.68 218.904 C 1940.56 230.262 1949.69 241.577 1957.43 253.756 C 1964.35 264.663 1969.6 276.613 1976.07 287.798 C 1986.72 306.209 1997.27 323.706 2005.74 343.315 C 2026.26 390.824 2042.34 452.282 2048 503.375 L 2048 806.951 C 2033.61 951.856 1962.13 1085.07 1849.34 1177.17 C 1757.52 1252 1659.91 1285.02 1543.68 1301 L 944.238 1301 C 937.027 1299.64 928.863 1302.99 924.23 1297.19 C 923.544 1288.45 949.401 1264.99 957.544 1264.04 C 974.283 1262.1 993.42 1263.12 1010.49 1263.25 L 1088.54 1263.2 L 1345.53 1263.22 L 1451.59 1263.29 C 1491.49 1263.3 1521.47 1263.86 1561.33 1259.2 C 1588.81 1255.73 1616.02 1250.36 1642.76 1243.13 C 1830.28 1192.28 1973.51 1028.42 2003.72 837.444 C 2012.72 780.53 2009.55 733.202 2010.28 676.524 C 2011.84 555.268 2015.77 457.236 1964.19 343.984 C 1917.27 243.113 1840.14 159.33 1743.48 104.239 C 1737.58 100.906 1730.83 98.1538 1724.74 95.0666 C 1653.28 58.7985 1574.19 40.1224 1494.05 40.5924 C 1476.09 40.5255 1450.58 40.1085 1432.94 41.7133 C 1326.54 52.4223 1226.11 96.0167 1145.62 166.437 C 1123.83 185.212 1104.07 207.823 1083.24 227.699 C 1072.59 238.814 1057.46 248.907 1048.06 260.949 C 1036.11 276.265 1022.87 286.325 1009.03 299.561 C 993.887 314.039 979.037 329.368 964.177 344.237 L 694.131 614.23 C 674.149 634.301 654.087 654.314 634.164 674.446 C 624.599 684.111 617.009 695.094 606.377 703.582 C 600.112 708.584 597.022 709.136 589.307 711.267 z"/>
<path transform="translate(0,0)" fill="rgba(246, 113, 37, 1)" d="M 502.308 1301 C 373.627 1280.61 277.619 1246.43 180.699 1155.94 C 153.929 1130.94 128.205 1103.48 106.587 1073.78 C 88.9086 1049.49 70.4224 1019.44 58.0221 992.069 C 53.2709 981.582 49.7557 970.594 45.5255 959.898 C 36.0835 936.023 27.2123 911.857 20.8431 886.936 C 1.05837 809.522 2.24533 728.547 2.07941 649.215 C 2.00349 612.918 1.03032 576.272 2.98376 540.031 C 4.3565 514.564 7.75633 488.048 11.7858 462.868 C 31.449 339.989 98.4479 222.68 191.628 140.647 C 202.337 131.22 212.737 121.703 224.336 113.344 C 282.863 71.1623 347.97 37.4314 418.643 21.3868 C 503.787 2.05702 585.715 6.95986 672.271 6.95884 L 936.467 6.95378 L 1057.62 6.85557 C 1069.76 6.82439 1106.63 5.93065 1117.14 7.51996 C 1118.69 7.75263 1120.22 8.12251 1121.7 8.62527 C 1122.41 9.95005 1122.69 10.04 1122.18 11.4767 C 1118.71 21.2902 1098.58 37.5108 1089.28 41.4641 C 1078.96 45.8458 978.567 43.6031 957.853 43.6403 L 660.793 43.5564 L 565.94 43.6112 C 525.721 43.7796 496.28 43.26 456.315 50.7685 C 333.215 74.6254 223.286 143.162 147.676 243.192 C 96.2839 311.036 61.0212 391.738 47.8842 475.645 C 37.0944 538.591 42.5466 601.513 40.9268 664.726 C 38.2557 768.969 42.6741 863.295 86.0649 960.225 C 105.82 1004.36 131.025 1045.12 162.313 1082.61 C 216.382 1147.39 289.949 1197 367.375 1229.61 C 466.617 1269.7 593.782 1274.33 697.035 1246.45 C 716.748 1241.12 746.259 1229.57 765.423 1221.51 C 802.921 1206 837.945 1185.08 869.381 1159.42 C 903.348 1132.1 934.913 1099.59 965.645 1068.81 L 1071.42 963.063 L 1436.28 598.216 C 1441.54 592.972 1444.08 590.264 1450.76 586.768 C 1463.25 580.234 1481.59 599.144 1473.56 610.653 C 1449.29 645.425 1415 674.207 1385.5 704.622 C 1376.35 714.015 1365.68 721.761 1356.45 731.175 L 1050.62 1036.99 L 965.402 1122.35 C 930.267 1157.32 905.943 1180.53 865.12 1208.52 C 797.592 1254.82 727.599 1280.29 647.262 1294.88 C 637.248 1296.7 627.244 1299.54 616.811 1301 L 502.308 1301 z"/>
</g></svg></svg></svg>